<svg id="visual" viewBox="0 0 900 600" width="100%" height="100%" xmlns="http://www.w3.org/2000/svg" xmlns:xlink="http://www.w3.org/1999/xlink" version="1.1">
  <path d="M401 600L424 585.7C447 571.3 493 542.7 516.2 514.2C539.3 485.7 539.7 457.3 515.5 428.8C491.3 400.3 442.7 371.7 405.3 343C368 314.3 342 285.7 338.2 257C334.3 228.3 352.7 199.7 379.2 171.2C405.7 142.7 440.3 114.3 437.8 85.8C435.3 57.3 395.7 28.7 375.8 14.3L356 0L900 0L900 14.3C900 28.7 900 57.3 900 85.8C900 114.3 900 142.7 900 171.2C900 199.7 900 228.3 900 257C900 285.7 900 314.3 900 343C900 371.7 900 400.3 900 428.8C900 457.3 900 485.7 900 514.2C900 542.7 900 571.3 900 585.7L900 600Z" fill="#33333350" stroke-linecap="round" stroke-linejoin="miter"></path>
</svg>
